# xmcd CD database file
#
# Track frame offsets:
#	150
#	16707
#	32618
#	45452
#	70408
#	87659
#	107296
#	122472
#	142158
#	158828
#	174000
#	192955
#	213156
#	230609
#	248384
#
# Disc length: 3510 seconds
#
# Revision: 2
# Processed by: cddbd v1.4b41PL1 Copyright (c) Steve Scherf et al.
# Submitted via: Feurio! 1.52 - http://www.feurio.com
#
DISCID=b60db40f
DTITLE=Sound Tack - Charlies Angels
DYEAR=1900
DGENRE=
TTITLE0=Charlie's Angels -01- Destiny's Child - Independent Women (Part I)
TTITLE1=Charlie's Angels -02- Tavares - Heaven Must Be Missing An Angel
TTITLE2=Charlie's Angels -03- Leo Sayer - You Make Me Feel Like Dancing
TTITLE3=Charlie's Angels -04- Spandau Ballet - True
TTITLE4=Charlie's Angels -05- Destiny's Child - Dot
TTITLE5=Charlie's Angels -06- Sir Mix-A-Lot - Baby Got Back
TTITLE6=Charlie's Angels -07- Aerosmith - Angel's Eye
TTITLE7=Charlie's Angels -08- Heart - Barracuda
TTITLE8=Charlie's Angels -09- The Vapors - Turning Japanese
TTITLE9=Charlie's Angels -10- Looking Glass - Brandy (You're A Fine Girl)
TTITLE10=Charlie's Angels -11- Marvin Gaye - Got To Give It Up (Part I)
TTITLE11=Charlie's Angels -12- Fatboy Slim - Ya Mama
TTITLE12=Charlie's Angels -13- Deee-Lite - Groove Is In The Heart
TTITLE13=Charlie's Angels -14- Apollo Four Forty - Charlie's Angels 2000
TTITLE14=Charlie's Angels -15- Caviar - Tangerine Speedo
EXTD=
EXTT0=(c) MaKueh Records
EXTT1=(c) MaKueh Records
EXTT2=(c) MaKueh Records
EXTT3=(c) MaKueh Records
EXTT4=(c) MaKueh Records
EXTT5=(c) MaKueh Records
EXTT6=(c) MaKueh Records
EXTT7=(c) MaKueh Records
EXTT8=(c) MaKueh Records
EXTT9=(c) MaKueh Records
EXTT10=(c) MaKueh Records
EXTT11=(c) MaKueh Records
EXTT12=(c) MaKueh Records
EXTT13=(c) MaKueh Records
EXTT14=(c) MaKueh Records
PLAYORDER=
